# xmcd
#
# Track frame offsets: 
#        150
#        24130
#        46483
#        67160
#        87192
#        106243
#        125730
#        152526
#        172311
#        195875
#        218259
#
# Disc length: 3187 seconds
#
# Revision: 0
# Processed by: cddbd v1.5.2PL0 Copyright (c) Steve Scherf et al.
# Submitted via: ExactAudioCopy v1.0b3
#
DISCID=8a0c710b
DTITLE=辛島美登里 - colorful
DYEAR=2014
DGENRE=JPop
TTITLE0=シアワセノイロ ～家族になりたい～
TTITLE1=サイレント・イヴ (colorful version)
TTITLE2=つよく、つよく…
TTITLE3=名前のない空
TTITLE4=毒
TTITLE5=あなたは知らない (colorful version)
TTITLE6=蛍
TTITLE7=ハロウィン過ぎたら
TTITLE8=あなたと
TTITLE9=手をつなごう ～ひとりぼっちじゃない～ (colorful version)
TTITLE10=一歩一歩ずつ ～Go to hometown～
EXTD=
EXTT0=
EXTT1=
EXTT2=
EXTT3=
EXTT4=
EXTT5=
EXTT6=
EXTT7=
EXTT8=
EXTT9=
EXTT10=
PLAYORDER=
